<svg xmlns="http://www.w3.org/2000/svg" viewBox="0 0 343.43 37.19"><title>curly-border</title><g id="Layer_2" data-name="Layer 2"><g id="Objects"><path d="M4.39,29.31a21,21,0,0,0,14.69,7.86c5.36.35,10.37-2.81,13.55-6.94,3.83-5,3.48-10.66-.86-15.29C28.1,11,20.09,9.13,16.16,13.79c-2.54,3-2.36,6.52-.11,9.71a6.25,6.25,0,0,0,4.75,2.9c1.83,0,2.36-1.61,3.26-2.85.24-.33.35-.72,0-.2-1,1.27-1.55,2-3.34,1.67s-3-1.84-4-3.18a8.47,8.47,0,0,1-1.55-5.26c.19-3.5,4.81-4.18,7.51-3.92A13.21,13.21,0,0,1,34.11,24.5c.61,7.71-9,10.55-15,9.65C8.81,32.62-.15,21.71,2,11.3c1.64-8,12.48-9.49,19.16-9.8C39.29.65,57.62,6.23,74.56,12.21c10.06,3.55,19.49,8.41,29.32,12.53,12.14,5.08,26.27,9.11,38.53,2.49a50.41,50.41,0,0,0,5.2,1.06c8.92,1.34,18.58-1.28,24.11-8.43,5.52,7.15,15.19,9.77,24.1,8.43a50.41,50.41,0,0,0,5.2-1.06c12.27,6.62,26.39,2.59,38.53-2.49,9.83-4.12,19.27-9,29.32-12.53C285.81,6.23,304.14.65,322.3,1.5c6.68.31,17.52,1.77,19.16,9.8,2.12,10.41-6.84,21.32-17.09,22.85-6.05.9-15.66-1.94-15.05-9.65a13.21,13.21,0,0,1,11.44-11.84c2.7-.26,7.33.42,7.51,3.92a8.41,8.41,0,0,1-1.55,5.26c-.94,1.34-2.29,2.82-4,3.18s-2.38-.4-3.34-1.67c-.39-.52-.28-.13,0,.2.89,1.24,1.43,2.87,3.25,2.85a6.29,6.29,0,0,0,4.76-2.9c2.24-3.19,2.43-6.7-.11-9.71-3.94-4.66-11.95-2.76-15.61,1.15-4.34,4.63-4.7,10.32-.87,15.29,3.18,4.13,8.19,7.29,13.55,6.94a21,21,0,0,0,14.7-7.86c5.19-6.53,6.1-15.25.95-22C336,2,328.68.57,322.39.22,312.8-.32,303.38,1.36,294,3a226.25,226.25,0,0,0-26.19,6.28c-10,3-19,7.92-28.56,12-10.68,4.56-24.76,9.81-36.37,5.49,9.82-2.84,18.88-8.15,27.7-13.2,6.31-3.6,12.65-7.22,19.74-9.08A38.62,38.62,0,0,1,262.58,3a34.65,34.65,0,0,1,11.24,2.8s-.2-.42-.32-.5c-12.43-8.15-28.1-2.5-39.87,4-9.22,5.08-18.38,10.31-28.38,13.76-2,.68-4.08,1.32-6.23,1.84l-.2-.11c-6.2-3.83-11.65-13-5.79-19.56,2.06-2.3,5.85-4.86,9.08-3.26,3.82,1.89,1.42,6.82-.57,9-.09.11.51.82.55.78,3.16-2.79,3.71-6.23,1.18-9.55-3-4-8.71-1.94-11.36,1.44-5.51,7-.46,16.55,5.93,21.55-8.34,1.85-17.35,1.82-24-4.06a13.18,13.18,0,0,1-1.69-1.81,20.77,20.77,0,0,0,2-3.35c1.91-4.13,1.82-8.91-1-12.52,3.34-2.7,7.38-1.8,10.14,2.13.09.13.12.1,0,0a17.49,17.49,0,0,0-1.5-1.93C179.05.75,174.92-.65,171.72,2c-3.21-2.61-7.33-1.21-10.08,1.65a17.49,17.49,0,0,0-1.5,1.93c-.09.12-.06.15,0,0,2.76-3.93,6.8-4.83,10.14-2.13-2.79,3.61-2.89,8.39-1,12.52a20,20,0,0,0,2,3.35,13.18,13.18,0,0,1-1.69,1.81c-6.67,5.88-15.68,5.91-24,4.06,6.39-5,11.45-14.51,5.93-21.55-2.65-3.38-8.34-5.41-11.36-1.44-2.53,3.32-2,6.76,1.18,9.55,0,0,.64-.67.55-.78-2-2.17-4.39-7.1-.57-9,3.23-1.6,7,1,9.08,3.26,5.86,6.54.42,15.73-5.79,19.56l-.2.11c-2.15-.52-4.24-1.16-6.23-1.84-10-3.45-19.15-8.68-28.38-13.76C98,2.8,82.36-2.85,69.93,5.3c-.12.08-.29.48-.32.5A34.65,34.65,0,0,1,80.85,3,38.62,38.62,0,0,1,93.13,4.46c7.09,1.86,13.43,5.48,19.74,9.08,8.82,5.05,17.88,10.36,27.7,13.2-11.61,4.32-25.69-.93-36.37-5.49-9.52-4.07-18.6-9-28.56-12A226.08,226.08,0,0,0,49.46,3C40.05,1.36,30.63-.32,21,.22,14.75.57,7.47,2,3.43,7.29-1.71,14.06-.81,22.78,4.39,29.31ZM171.72,4.85c3.37,4.13,2.83,9.79,0,13.88C168.88,14.64,168.34,9,171.72,4.85Z"/><path d="M77.42,18.13c-.08,0-.24.33-.24.33,2.54.75,5.42,1.59,5.39,4.76,0,4.08-5.07,6.16-8.44,6.41C66.31,30.21,59,18.35,64.52,12c0,0,.13-.2.07-.14a10.73,10.73,0,0,0-2.36,10.3c1.47,5.75,6.42,9.54,12.34,8.47a11.42,11.42,0,0,0,7.58-5.42C84.25,21.34,81.53,18.38,77.42,18.13Z"/><path d="M278.91,12c5.55,6.36-1.79,18.22-9.61,17.64-3.37-.25-8.39-2.33-8.44-6.41,0-3.17,2.85-4,5.39-4.76,0,0-.16-.34-.24-.33-4.11.25-6.83,3.21-4.72,7.07a11.38,11.38,0,0,0,7.57,5.42c5.92,1.07,10.87-2.72,12.34-8.47a10.73,10.73,0,0,0-2.36-10.3C278.78,11.79,278.89,12,278.91,12Z"/></g></g></svg>