<svg xmlns="http://www.w3.org/2000/svg" viewBox="0 0 216.48 154.39"><defs><style>.cls-1{fill:#fff;}</style></defs><title>icon</title><g id="Layer_2" data-name="Layer 2"><g id="Layer_1-2" data-name="Layer 1"><path class="cls-1" d="M208.31,150.13a9.35,9.35,0,0,1-8.33-4.74A39,39,0,0,1,195.29,133q-1.69-7.64-3.1-16.67-1.2-8.61-3-17A83.57,83.57,0,0,0,184.4,84a29.54,29.54,0,0,0-8.07-11.22q-5.06-4.26-13.12-4.25h-1.64L165.82,67A146,146,0,0,0,183,60a35.43,35.43,0,0,0,12.8-10.24q4.91-6.37,5.12-16.94A36.27,36.27,0,0,0,197.31,17,29.85,29.85,0,0,0,186.47,4.74Q179.22,0,168.33,0H77.14Q57.64,0,43.2,6.53a69.3,69.3,0,0,0-24,17.54A74.88,74.88,0,0,0,4.79,48.91a85.85,85.85,0,0,0,0,56.55A74.88,74.88,0,0,0,19.18,130.3a69.17,69.17,0,0,0,24,17.54q14.44,6.54,33.94,6.54h38.57c8.2,0,16.43-.14,24.62,0,.23-2.5-1.09-2.38-3.1-2.68a17.18,17.18,0,0,1-6-2c-10.53-5.87-9.48-17.71-8.66-28,.07-.81.13-1.63.2-2.44.86-10.37,1.93-21.86,8-30.66,5.72-8.26,15.31-16.3,25.87-16.3a9.53,9.53,0,0,1,8.55,4.8,38.09,38.09,0,0,1,4.58,12.52q1.57,7.74,2.78,16.89,1.08,8.61,2.66,17a75.68,75.68,0,0,0,4.53,15.42,29.09,29.09,0,0,0,8,11.22q5.07,4.25,13.24,4.25,9.38,0,15.47-4.9v-2.73A11.09,11.09,0,0,1,208.31,150.13ZM146,72.25c-4.44,2.62-9.27,4.6-13.5,7.58a55.45,55.45,0,0,0-9.75,8.8C112,100.89,106.43,118.74,108,134.89c.38,3.89,0,7.85-2.17,11.26a14.57,14.57,0,0,1-7.67,5.5h-8q-18.08,0-31.48-6.32a63.71,63.71,0,0,1-22.23-17,72.27,72.27,0,0,1-13.18-23.91,87.62,87.62,0,0,1,0-54.59A72.27,72.27,0,0,1,36.5,26,63.69,63.69,0,0,1,58.73,9q13.4-6.31,31.48-6.32h8a14.66,14.66,0,0,1,7.64,5.44,19.43,19.43,0,0,1,2.71,9c0,.17,0,.34,0,.51q.12,1.72.12,3.57l-.06,7.91q-.06,9.14-.13,18.27c-.09,12.08-.38,24.17-.38,36.25,0,1.53.85.65,1.37,0,.63-.86,1.1-1.84,1.75-2.68,1-1.33,2.09-2.61,3.22-3.84A56,56,0,0,1,122,70.28c2.62-2,5.1-3.36,5.31-7,.19-3.37-.07-6.85-.07-10.23V21.24c0-1.41,0-2.76.16-4a.38.38,0,0,0,0-.1,19.44,19.44,0,0,1,2.75-8.88Q133.11,3.81,140.3,2h18.77q8.06,0,13.4,4.3a26,26,0,0,1,7.95,11.11A41,41,0,0,1,183,32.14c0,6.81-.45,14.16-5.65,19.13-2.56,2.44-5.63,4.25-8.48,6.34C161.57,63,153.76,67.64,146,72.25Z"/><polygon class="cls-1" points="157.78 26.6 154.44 16.32 151.1 26.6 140.29 26.6 149.04 32.96 145.69 43.24 154.44 36.89 163.19 43.24 159.85 32.96 168.6 26.6 157.78 26.6"/></g></g></svg>